<?xml version="1.0" encoding="UTF-8" standalone="no"?>
<svg
   version="1.0"
   width="820"
   height="831.70404"
   viewBox="0 0 615 623.77803"
   preserveAspectRatio="xMidYMid"
   id="svg9"
   sodipodi:docname="RocketCoffee 2.svg"
   xml:space="preserve"
   inkscape:version="1.4 (e7c3feb100, 2024-10-09)"
   xmlns:inkscape="http://www.inkscape.org/namespaces/inkscape"
   xmlns:sodipodi="http://sodipodi.sourceforge.net/DTD/sodipodi-0.dtd"
   xmlns:xlink="http://www.w3.org/1999/xlink"
   xmlns="http://www.w3.org/2000/svg"
   xmlns:svg="http://www.w3.org/2000/svg"
   xmlns:rdf="http://www.w3.org/1999/02/22-rdf-syntax-ns#"
   xmlns:cc="http://creativecommons.org/ns#"><defs
     id="defs9"><rect
       x="170.04906"
       y="622.55247"
       width="618.51674"
       height="25.090369"
       id="rect93" /><rect
       x="198.87093"
       y="596.61279"
       width="852.39388"
       height="1.0190071"
       id="rect92" /><linearGradient
       id="linearGradient68"
       inkscape:collect="always"><stop
         style="stop-color:#110404;stop-opacity:1;"
         offset="0"
         id="stop68" /><stop
         style="stop-color:#543838;stop-opacity:1;"
         offset="1"
         id="stop69" /></linearGradient><linearGradient
       inkscape:collect="always"
       xlink:href="#linearGradient68"
       id="linearGradient69"
       x1="2415.3418"
       y1="2997.5486"
       x2="5338.6128"
       y2="2997.5486"
       gradientUnits="userSpaceOnUse"
       gradientTransform="translate(-2746.7257,-2124.5404)" /></defs><sodipodi:namedview
     id="namedview9"
     pagecolor="#ffffff"
     bordercolor="#000000"
     borderopacity="0.03529412"
     inkscape:showpageshadow="true"
     inkscape:pageopacity="0.0"
     inkscape:pagecheckerboard="true"
     inkscape:deskcolor="#d1d1d1"
     inkscape:document-units="pt"
     inkscape:zoom="0.3469587"
     inkscape:cx="-355.95014"
     inkscape:cy="636.96341"
     inkscape:window-width="1920"
     inkscape:window-height="1014"
     inkscape:window-x="0"
     inkscape:window-y="32"
     inkscape:window-maximized="1"
     inkscape:current-layer="g9"
     showgrid="true"
     showguides="true"
     borderlayer="true"
     showborder="true"
     inkscape:lockguides="false"><inkscape:grid
       type="modular"
       id="grid1"
       units="pt"
       originx="348.02414"
       originy="-229.1339"
       spacingx="113.38583"
       spacingy="113.38583"
       empcolor="#0047cb"
       empopacity="0.30196078"
       color="#0099e5"
       opacity="0.14901961"
       empspacing="0"
       marginx="0"
       marginy="0"
       gapx="28.346456"
       gapy="28.346457"
       enabled="false"
       visible="true" /><inkscape:grid
       type="modular"
       id="grid2"
       units="pt"
       originx="348.02414"
       originy="-229.1339"
       spacingx="113.38583"
       spacingy="113.38583"
       empcolor="#0047cb"
       empopacity="0.30196078"
       color="#0099e5"
       opacity="0.14901961"
       empspacing="0"
       marginx="0"
       marginy="0"
       gapx="28.346456"
       gapy="28.346457"
       enabled="false"
       visible="true" /></sodipodi:namedview><g
     transform="matrix(0.13024653,0,0,-0.10581611,168.30631,256.09618)"
     fill="#3e2723"
     stroke="none"
     id="g9"
     style="fill:#3e2723;fill-opacity:1;fill-rule:nonzero"><path
       d="m 875.32155,2306.6319 c -41.5405,-44.1812 -75.9435,-87.2566 -105.8599,-133.555 -36.9531,-57.1884 -67.0609,-119.2942 -95.3193,-194.4755 -55.1732,-148.4769 -74.6855,-265.1868 -69.9756,-419.879 3.3642,-96.6827 2.6914,-101.5167 -11.4383,-118.7815 -8.074,-10.3589 -32.9691,-48.3414 -54.5001,-84.2521 -37.679,-62.8437 -39.6976,-67.6778 -41.7161,-117.4003 -2.0186,-37.2919 2.6914,-77.3462 15.4753,-141.5711 20.8581,-104.27922 48.4445,-225.13269 53.1545,-229.27619 1.3457,-2.0717 6.7284,15.1931 10.7655,37.29192 4.7098,22.099 15.4753,56.62845 24.8951,76.65555 18.1665,39.36372 82.0866,111.87582 98.2348,111.87582 6.0555,0 10.7653,-10.3589 14.1296,-31.7672 6.0555,-49.032 9.4197,-51.1037 88.8149,-51.1037 h 69.9755 v -19.33662 -19.3365 l -51.8088,0.6905 h -52.4816 l -2.0185,-35.91065 -2.0185,-36.6014 42.389,-1.3811 c 23.5494,-0.69062 49.1173,-1.38122 57.1914,-1.38122 18.8396,0 19.5123,-2.0717 31.6235,-100.1356 5.3827,-42.8166 11.4384,-79.4179 12.7839,-81.4897 2.0186,-1.3812 11.4383,-3.4529 22.2038,-4.1435 l 19.5123,-1.3812 4.0371,79.4179 c 5.3827,115.32862 2.6915,110.49442 73.33965,110.49442 h 59.21 l 4.7099,20.7178 c 2.6914,11.0494 2.0185,26.93305 0,35.22015 -4.7099,13.8118 -8.747,14.5024 -61.2284,11.7401 -54.50025,-2.0719 -57.19155,-1.3812 -53.82735,11.74 2.0185,7.5965 4.0371,17.9553 4.0371,22.78952 0,6.9059 16.1481,8.2871 70.64825,6.9059 46.426,-1.3812 72.6667,0.6905 78.0495,6.2153 4.037,4.1435 11.4382,24.1706 15.4753,44.1978 4.7099,20.0271 10.7655,37.2919 14.8025,38.673 13.4568,4.1436 89.4878,-111.87562 109.0002,-166.43237 l 19.5123,-55.24722 10.7655,34.52962 c 10.0926,31.76715 28.2593,120.16277 55.8457,278.99857 11.4384,65.606 11.4384,65.606 -3.3641,95.9921 -8.7469,16.5741 -33.642,58.7002 -55.8458,94.6109 l -39.6977,64.2249 -3.3641,95.3014 c -6.7284,218.2267 -12.784,262.4245 -51.1359,381.8966 -30.2778,94.6109 -73.3396,186.4595 -124.4755,265.1867 -44.4075,68.3685 -131.20395,169.8854 -146.00645,169.8854 -4.037,0 -28.2593,-22.7895 -54.5001,-50.4132 z m 63.2471,-78.7272 c 31.6235,-124.3064 42.3889,-164.3606 45.7531,-169.8854 4.7099,-7.5964 -145.3335,-2.0717 -170.9015,6.2154 -8.7469,2.0717 -15.4753,8.9777 -15.4753,13.8118 0,27.6236 105.6359,174.0288 125.8211,174.7194 4.7099,0.6906 11.4383,-11.0495 14.8026,-24.8612 z m 104.96315,-119.4722 c 9.4197,-18.646 14.1296,-40.7449 6.7284,-33.8389 -5.3827,6.2152 -23.5495,54.5566 -20.1852,54.5566 1.3456,0 7.4012,-8.9776 13.4568,-20.7177 z m 83.4322,-160.9076 c 10.7655,-35.9107 26.2408,-89.0861 34.3149,-119.4722 16.821,-67.6779 29.6049,-242.3973 24.8951,-341.1517 -6.0557,-113.2569 -39.0249,-260.3526 -79.3953,-351.5105 -16.821,-38.6731 -20.858,-43.5073 -34.3148,-39.3637 -8.7469,2.0717 -17.4938,4.1436 -20.1852,4.1436 -2.0185,0 4.037,8.9776 14.1296,20.0271 26.7717,29.1266 55.2477,111.6071 75.2559,211.2479 5.1346,25.5706 9.7116,52.2714 13.559,79.4906 4.71,32.4578 8.0742,120.8534 8.0742,196.8184 0.6728,153.311 -4.7099,189.2218 -45.7532,314.2186 -24.8951,75.9649 -27.5865,89.7768 -16.821,89.7768 3.3643,0 15.4753,-29.0048 26.2408,-64.2249 z m -98.9076,34.5295 c 10.7655,-20.7177 53.8272,-149.1676 63.9198,-191.2936 6.7285,-29.6954 10.0927,-74.5837 9.4198,-132.5934 -1.3456,-168.504 -25.5679,-316.981 -71.9938,-439.2155 -35.66075,-93.9203 -37.00635,-109.8039 -10.7655,-113.9475 12.1111,-2.0717 8.074,-3.4529 -12.1112,-4.1435 l -30.27785,-0.6905 2.0185,90.4673 c 2.0186,80.799 0,98.0638 -15.4753,154.0017 -33.642,121.5439 -43.7347,129.1404 -68.6298,45.579 -20.1852,-67.678 -28.9321,-136.737 -28.9321,-225.1326 v -71.8213 h -46.426 -46.4259 l -27.5865,69.059 c -58.5372,143.6428 -79.3952,270.7115 -71.994,431.619 7.4013,158.8359 23.5494,249.9938 68.6298,373.6095 l 10.0925,29.0048 135.2411,-2.7624 c 104.963,-2.0717 137.25945,-4.8341 141.29645,-11.74 z M 618.96915,1327.3746 c 6.7286,-35.9107 4.71,-46.2696 -9.4197,-51.1037 -7.4013,-2.7623 -24.895,-24.1706 -38.3519,-49.032 -14.1296,-24.1706 -27.5864,-44.1978 -30.2778,-44.1978 -9.4197,0 -5.3828,37.292 8.0741,66.9873 14.8024,33.8391 55.1729,98.7545 61.2285,98.7545 2.6913,0 6.0556,-9.6682 8.7468,-21.4083 z m 312.1983,-368.77532 c 0,-75.96497 -2.0186,-145.71467 -4.71,-155.38297 -7.4013,-24.8612 -16.1482,410.21089 -9.4198,463.38639 4.71,40.7448 6.0557,35.2201 9.4198,-62.8438 2.6914,-58.7002 4.71,-169.1947 4.71,-245.15962 z m -442.7293,908.12652 c -93.5248,-33.1484 -168.2101,-73.2026 -262.4078,-138.8087 -148.024899,-102.898 -261.734909,-219.6078 -353.24131,-361.8694 -77.37659,-121.544 -118.41989,-215.4643 -160.13599,-372.91892 -39.6976,-148.47707 -47.0989,-212.01137 -43.0618,-368.08477 5.3827,-203.7242 38.3519,-345.98586 119.0928,-517.25236 203.8705909,-430.2378 623.7231,-703.021 1106.8228,-718.2141 264.42635,-8.2871 518.76005,68.3685 756.94555,229.2761 51.1359,34.5295 95.5434,73.2026 161.4818,141.5711 103.6174,106.35089 174.2657,203.724095 237.5127,330.102297 22.2037,44.197703 43.7347,82.870703 47.7716,85.633103 4.0371,2.7624 16.8211,5.5247 27.5866,5.5247 11.4382,0 56.5185,7.5965 100.926,17.2648 173.5929,35.9107 285.2844,122.9251 336.4203,261.73376 25.568,69.7496 32.9692,127.7592 24.2222,187.1501 -13.4568,95.3015 -43.0617,156.0734 -105.6359,219.6077 -57.8643,58.70022 -152.7349,93.92037 -252.3152,94.61097 -81.4138,0 -82.7595,0.6906 -100.2533,60.77202 -21.5309,71.8214 -71.9939,192.6748 -110.3458,263.115 -113.7101,211.3206 -318.2536,411.592 -532.8898,524.1582 -30.9506,16.5742 -184.3582,71.8214 -184.3582,66.9872 0,-16.5741 22.2037,-138.8086 25.5679,-142.2616 2.6914,-2.0718 22.8766,-11.0495 45.0803,-20.0271 194.4509,-77.3461 371.408,-229.9667 501.9391,-433.6909 59.8828,-93.2297 98.9075,-175.4099 132.5496,-281.0703 41.0432,-127.75929 45.0803,-159.52649 45.0803,-341.84239 0,-142.9522 -2.0185,-171.2664 -15.4753,-236.182 C 2005.6937,270.77105 1955.2307,149.22715 1876.5083,35.279648 1716.3723,-197.44926 1523.94,-345.23565 1270.279,-428.79705 c -141.9693,-47.6508 -235.4941,-62.1532 -365.35245,-57.3191 -300.0869,11.0495 -569.2232,127.7593 -785.8778,339.77059 -146.679209,144.3334078 -264.4263,348.05751 -300.7598,524.15821 -28.2592,135.35566 -37.0061,303.16906 -22.8765,425.40366 14.1296,120.16282 65.2655,285.21399 122.456891,397.08959 117.7471,231.3479 355.932709,452.3368 565.186109,524.1583 l 49.1174,17.2648 5.3827,49.7225 c 3.3642,27.6235 10.0926,60.7719 15.4753,73.8931 5.3828,13.1212 8.7469,24.8612 8.0741,25.5519 -1.3456,0.6905 -33.6421,-9.6684 -72.6668,-24.1707 z M 2304.4349,770.75851 c 41.7161,-13.8118 83.4323,-49.0318 103.6175,-87.7049 21.5308,-42.126 20.858,-132.5934 -1.3457,-179.5536 -22.2037,-45.579 -61.2285,-83.5614 -104.2903,-100.1356 -34.9877,-13.12116 -129.8583,-30.38596 -138.6052,-24.86126 -2.6913,1.3812 0,24.17066 6.0557,49.72256 7.4012,33.8389 10.0925,89.0861 10.0925,200.2712 l 0.6729,154.0017 h 44.4075 c 24.8951,0 60.5556,-4.8342 79.3951,-11.7401 z M 479.01835,1625.0191 c -52.4815,-22.7894 -150.7162,-87.705 -227.42,-151.2393 -124.4755,-102.898 -265.099209,-308.0033 -314.889409,-459.2427 -74.012491,-225.82319 -76.030991,-487.55699 -5.3827,-694.73415 67.95679992,-199.5806 197.142309,-376.371805 371.407909,-508.96521 21.531,-15.88359 42.389,-29.69529 47.0989,-29.69529 4.7098,0 8.0741,15.1929 8.7469,37.98239 2.0185,78.0367 67.9569,141.571105 146.6792,141.571105 38.352,0 73.3396,-17.9554 109.0002,-55.247201 l 26.9138,-29.004904 -8.7471,50.413205 c -14.8025,84.252003 -12.784,105.660303 12.1112,134.665102 25.568,29.6954 55.173,44.197803 91.5063,44.197803 h 26.2408 l 4.0371,71.1308 c 2.0185,38.6731 10.0925,115.3287 17.4938,170.5759 12.1111,86.32376 47.7717,449.57436 47.7717,484.79446 0,10.3589 -6.0556,12.4306 -37.0062,12.4306 -46.426,0 -57.1915,10.3589 -77.3767,73.20262 -14.1297,45.57905 -35.6605,79.41795 -43.7346,70.44025 -20.1853,-20.7176 -83.4323,-214.08307 -84.7781,-256.89967 0,-22.7895 -70.6482,123.6157 -92.852,192.67472 -24.8951,79.41807 -51.1358,202.34307 -61.9012,288.66687 l -8.0742,68.3685 32.2964,62.8437 c 17.4939,35.2201 43.7347,81.4898 57.8643,102.8981 24.2223,35.9107 26.2408,42.8166 26.2408,87.0144 0,54.5566 -6.7285,111.8756 -12.7841,111.1851 -2.0185,0 -24.8951,-8.9777 -50.463,-20.0272 z m -294.7041,-383.2777 c -8.0741,-18.646 -18.8395,-23.4801 -18.8395,-8.2871 0,9.6682 13.4568,25.5518 21.5309,25.5518 2.6913,0 1.3457,-7.5965 -2.6914,-17.2647 z m -47.7716,-88.3956 c -27.5866,-47.6507 -41.716199,-63.5343 -48.444499,-53.1754 -3.3643,6.2152 -2.6915,7.5964 2.0184,4.1435 5.3827,-3.453 8.0741,0.6905 8.0741,11.0494 0,17.9553 20.858099,61.4626 39.024799,80.1086 10.7654,11.7399 11.4382,11.7399 13.4568,-0.6907 1.3457,-6.9059 -5.3827,-25.5518 -14.1296,-41.4354 z m 137.9323,-91.8485 18.1666,-18.646 -14.1296,-21.4083 c -8.0741,-11.7401 -15.4754,-22.78952 -16.821,-24.17072 -1.3457,-2.0718 -7.4012,4.14362 -13.4569,12.43062 -5.3827,8.9778 -20.1852,20.0272 -31.6234,24.8613 l -20.858,8.9777 16.8209,6.9059 c 9.4197,4.1436 21.5309,11.74 26.2407,17.9554 12.1112,14.5024 13.4569,14.5024 35.6607,-6.9059 z M 3.3201409,898.51783 c 0.6729,-12.43062 2.0185,-81.48972 3.3642,-154.00172 C 11.394241,462.06461 55.801751,293.56055 170.85755,122.98475 c 62.574,-92.539102 89.4877,-129.8311052 114.3828,-156.764105 38.3519,-41.4354 12.7839,-30.386 -41.0432,17.2648 -59.21,53.175403 -139.9509,158.145205 -177.629999,230.657205 -36.33341,71.1309 -73.3396101,180.2441 -86.79641,259.66196 -10.0926,61.4626 -14.1297,256.2091 -6.7284,337.6988 2.6913,31.7671 22.2036999,109.11332 26.91359992,109.11332 1.34559998,0 2.69139998,-10.3589 3.36419998,-22.0989 z M 396.93185,767.99621 c 9.4197,-60.0814 38.3519,-93.2297 101.5989,-116.0192 l 44.4075,-16.5742 -39.0248,-15.8835 c -21.5308,-8.9777 -46.4259,-22.099 -55.8457,-29.0049 -23.5494,-18.6459 -45.7531,-60.7719 -50.463,-99.445 -5.3828,-40.0543 -13.4568,-37.9824 -19.5124,5.5247 -2.0185,17.2648 -9.4197,40.7448 -15.4754,52.4849 -14.8025,25.5518 -82.7594,72.512 -113.71,78.7273 -12.7839,2.0718 -22.8766,6.2153 -22.8766,8.9776 0,2.0719 18.1668,9.6684 40.3704,16.5743 55.1729,16.5741 95.5434,56.6284 108.3274,107.0415 4.7098,19.3365 10.7654,35.9107 13.4568,35.9107 2.0185,0 6.0556,-12.4306 8.7469,-28.3142 z m 483.7725,-807.300265 c -26.9137,-12.4306 -49.7902,-42.8166 -40.3705,-52.4849 2.0185,-2.762301 18.1667,0.6906 35.6606,6.9059 61.2285,21.4083 91.5063,12.4306 153.40775,-44.888405 l 39.6976,-37.2918 -4.0372,22.0988 c -9.4197,49.032004 -49.7901,94.611005 -98.23475,111.185105 -32.2963,11.7401 -53.1543,10.3589 -86.1235,-5.5247 z m 21.5309,1921.913455 c -84.1051,-20.0271 -143.3151,-102.898 -135.9138,-189.2218 10.0925,-122.9251 132.5495,-195.4371 231.4571,-137.4276 62.57425,36.6013 86.79655,86.3238 81.41385,168.5042 -4.71,74.5837 -32.9692,121.5438 -86.79655,144.3333 -28.2593,11.7401 -71.3211,18.646 -90.1606,13.8119 z m 14.8024,-95.9921 c 10.0927,-27.6237 -32.9692,-78.7274 -65.9384,-78.7274 -21.5308,0 -16.821,44.8885 6.7285,69.7497 22.2037,22.0989 52.4815,26.933 59.2099,8.9777 z m 392.26615,-221.6795 c 0,-73.2027 0.6728,-75.2744 24.2222,-116.0193 13.4568,-22.7895 38.3519,-69.059 55.1729,-102.8979 l 30.2779,-62.1531 -4.037,-65.6062 c -5.3827,-83.5615 -30.9507,-215.4642 -57.1915,-287.28567 -28.9322,-81.48972 -83.4323,-192.67482 -88.8149,-181.62542 -2.6914,4.8342 -8.747,26.2425 -13.4569,46.9602 -10.7654,45.579 -42.3889,135.35572 -61.2284,173.33827 -17.4939,35.22022 -26.9137,29.0048 -45.7532,-30.3859 -26.9136,-82.18037 -41.0433,-94.61107 -109.673,-94.61107 h -26.2408 l 3.3642,-49.7225 c 2.0185,-27.6236 5.3828,-100.1356 7.4012,-160.9076 3.3642,-89.0861 9.4198,-137.4275 30.9508,-248.61256 14.1296,-75.9649 34.3148,-162.9793 43.7345,-193.3653 16.1482,-49.7225 22.2038,-60.0814 63.9199,-100.826203 24.8951,-25.5519 47.7717,-54.556699 50.463,-65.606099 2.6914,-11.7401 0,-32.4578032 -6.7284,-54.556703 -12.1111,-36.6013 -15.4753,-79.417905 -7.4012,-93.229705 2.6913,-4.1435 12.1111,3.453 23.5494,19.3365 49.7902,71.130805 119.7657,80.799205 196.4695,29.004905 48.4445,-33.148405 78.0494,-102.207405 59.2098,-138.808695 -10.7653,-19.3366 2.6915,-17.2648 43.0619,8.2871 55.8457,35.22009 135.9139,107.732094 193.1052,174.028695 77.7958,90.494602 136.4023,184.636405 177.463,286.830105 38.8427,96.6733 61.984,200.55196 70.8152,315.36486 29.605,368.77537 -124.4755,707.85529 -427.2538,941.27489 -65.2655,50.4132 -166.1915,109.1134 -209.9262,122.2345 -15.4753,4.1436 -15.4753,4.1436 -15.4753,-70.4401 z m 300.7596,-505.5123 14.8026,-18.646 -14.8026,-18.646 -14.8024,-17.9553 -26.2408,23.4802 c -15.4753,14.5023 -22.2037,24.1706 -16.1481,24.1706 5.3827,0 15.4753,6.2153 22.2037,13.8118 15.4753,17.2648 16.821,17.2648 34.9876,-6.2153 z M 1506.446,705.84311 c 12.784,-20.0272 63.9199,-50.4132 97.5619,-58.0096 11.4383,-2.0718 21.5309,-6.9059 21.5309,-8.9777 0,-2.7624 -17.4938,-12.4306 -39.0248,-22.0989 -71.321,-31.7672 -101.5988,-74.5838 -110.3457,-155.3829 -2.0185,-15.193 -4.71,-6.9059 -10.7655,28.3142 -5.3827,26.9331 -14.8025,58.7002 -22.2037,71.1309 -15.4755,26.2423 -88.8151,76.6555 -113.0373,77.346 h -17.4939 l 16.821,7.5966 c 102.9447,44.8884 120.4386,61.4625 135.9139,128.4498 l 8.0741,34.5296 10.7655,-42.8166 c 6.0555,-22.7895 16.1481,-50.4132 22.2036,-60.0814 z m -385.5375,-942.65606 c -43.7347,-19.3366 -74.0125,-59.3908 -74.0125,-98.0638 0,-12.4307 4.037,-22.099 10.7654,-24.8613 14.8025,-5.5247 13.4569,-6.2154 22.8766,17.2648 23.5495,57.319 104.9631,80.1085 156.0991,44.1978 30.2778,-20.7178 52.4814,-22.7895 52.4814,-4.1436 0,18.646 -32.2963,55.9378 -58.5371,66.9873 -28.2592,12.4306 -80.068,11.74 -109.6729,-1.3812 z m -487.80965,17.2647 c -10.7654,-3.4529 -34.9877,-14.5023 -53.8272,-25.5518 -30.2778,-16.5742 -33.642,-21.4082 -35.6605,-44.1977 -1.3457,-14.5025 -0.6729,-26.2425 2.0185,-26.2425 2.0185,0 19.5124,9.6682 39.0248,20.7177 56.5187,32.4578 109.0002,24.8613 159.4632,-22.7895 12.784,-12.4306 30.9507,-29.0048 39.6976,-35.9107 l 15.4754,-13.8118 -4.7099,24.1706 c -17.4939,84.2521 -95.5433,144.33349 -161.4819,123.6157 z"
       style="opacity:1;fill:url(#linearGradient69);fill-opacity:1;fill-rule:nonzero;stroke-width:0.681657"
       id="path2"
       sodipodi:nodetypes="cscccscccccscsccccccccscccccscccccscscccccccccccssccccsccccsccccccscscccscccccccccccsccccccccccccscscscccsccccccccccssccccccccsccccscccccccccccsccccccccccsccccccscsccccscccssccccccccscccssccccscccccccccccccccccccccsccccccccccsccsccccccccccccccccsccscccccccccsccccccccccccccscccscccccsccccsccccccccccccscccscccccscccccc" /><g
       transform="matrix(0.55455757,0,0,1,-987.17311,-3445.2203)"
       fill="#000000"
       stroke="none"
       id="g14"
       style="fill:#040404;fill-opacity:1;fill-rule:nonzero"><path
         d="m 1820.7474,2681 c -228.7343,-7 -249.157,-12 -323.6998,-88 -77.6063,-79 -77.6063,-78 -80.6697,-538 -1.0211,-225 -1.0211,-572 0,-770 l 1.0211,-361 33.6975,-54 c 42.8877,-71 121.5151,-120 190.9522,-120 65.3527,0 512.6098,85 559.582,107 53.0991,24 127.6419,102 159.2971,166 l 27.5707,53 -3.0634,710 c -3.0634,705 -3.0634,709 -25.5284,749 -55.1413,100 -150.1069,156 -263.4529,153 -38.8031,-1 -163.3816,-4 -275.7064,-7 z m 188.91,-336 c 9.1902,-11 12.2536,-149 11.2324,-592 -1.0211,-555 -2.0422,-579 -20.4227,-594 -11.2324,-9 -59.2258,-21 -114.3671,-29 -88.8387,-11 -94.9655,-11 -109.2614,6 -11.2325,16 -13.2748,100 -8.1691,519 3.0634,275 6.1268,544 6.1268,597 0,113 -9.1902,105 128.663,107 71.4795,1 95.9867,-3 106.1981,-14 z"
         id="path1-3"
         style="fill:#040404;fill-opacity:1;fill-rule:nonzero;stroke-width:1.01051"
         sodipodi:nodetypes="ccccccscccccccccccccscc" /><path
         d="m 3041.0038,2681 c -142.9589,-5 -185.8466,-10 -215.4595,-24 -44.93,-22 -94.9656,-68 -130.7053,-121 l -26.5495,-40 -3.0634,-698 c -3.0634,-696 -3.0634,-698 19.4015,-740 44.93,-88 129.6842,-150 208.3116,-152 84.7542,-1 480.9546,25 517.7154,34 53.0991,14 130.7053,78 172.5719,141 37.782,58 35.7397,44 42.8876,328 l 3.0635,134 -98.029,-8 c -53.099,-4 -133.7687,-10 -178.6986,-14 l -81.6909,-6 -5.1056,-122 c -3.0634,-81 -9.1902,-126 -18.3805,-135 -9.1902,-9 -45.951,-13 -117.4305,-13 h -104.1558 l -3.0634,546 c -2.0422,438 0,549 11.2325,557 7.148,6 55.1413,14 106.1981,18 86.7964,6 93.9444,5 115.3882,-16 21.4439,-21 22.465,-29 19.4016,-146 l -4.0846,-124 h 176.6564 176.6564 l -3.0634,213 c -3.0634,195 -5.1057,215 -25.5284,252 -28.5918,53 -79.6485,99 -135.811,124 -50.0356,22 -61.2681,23 -418.6653,12 z"
         id="path2-6"
         style="fill:#040404;fill-opacity:1;fill-rule:nonzero;stroke-width:1.01051"
         sodipodi:nodetypes="cccccccccccccccssccccscccccccc" /><path
         d="m 4728.94,2683 -186.8677,-3 1.0211,-38 c 1.0212,-27 -10.2113,-56 -40.8454,-107 -22.4649,-38 -41.8665,-73 -41.8665,-77 0,-4 -40.8454,-89 -91.9022,-189 -50.0356,-100 -91.9021,-188 -91.9021,-195 0,-8 -4.0846,-14 -10.2114,-14 -6.1268,0 -10.2113,92 -10.2113,258 0,278 -3.0634,259 57.1835,340 l 16.3382,22 h -240.9879 c -209.3327,0 -242.009,-2 -248.1358,-16 -3.0634,-8 3.0634,-25 14.2959,-37 11.2325,-12 25.5284,-31 31.6552,-42 10.2113,-21 15.317,-461 13.2747,-1167 l -1.0211,-366 -35.7397,-41 c -47.9934,-57 -39.8243,-71 44.9299,-72 36.7609,0 136.8321,-4 220.5652,-8 200.1425,-11 219.544,-2 158.2759,81 l -30.634,41 v 192 192 l 29.6129,54 c 15.317,29 32.6763,54 37.782,56 11.2325,4 228.7342,-494 228.7342,-524 0,-12 -5.1056,-34 -12.2536,-49 -18.3804,-39 5.1057,-50 122.5362,-58 54.1202,-4 145.0012,-14 200.1425,-22 132.7476,-18 159.2971,-18 159.2971,2 0,9 -12.2537,30 -26.5495,47 -35.7398,42 -69.4372,111 -167.4662,342 -45.9511,110 -122.5362,286 -168.4873,390 -45.9511,105 -86.7965,200 -90.881,211 -5.1057,16 16.3382,65 76.5851,180 45.9511,88 86.7965,164 90.881,169 4.0846,6 38.8032,71 76.5852,145 67.3949,132 115.3882,208 166.445,262 30.634,33 22.465,49 -26.5495,46 -20.4227,-2 -121.5151,-4 -223.6286,-5 z"
         id="path3-7"
         style="fill:#040404;fill-opacity:1;fill-rule:nonzero;stroke-width:1.01051"
         sodipodi:nodetypes="ccccscsssccscsccccccccccccscccsccccccsccc" /><path
         d="m 5624.4754,2683 c -246.0935,-2 -447.2571,-7 -452.3628,-12 -6.1268,-6 4.0846,-26 24.5073,-51 l 34.7185,-42 V 1775 971 l -32.6763,-33 c -59.2258,-60 -49.0145,-68 134.7899,-98 231.7976,-38 706.6254,-151 757.6822,-180 18.3804,-11 34.7186,-16 37.782,-12 2.0422,4 1.0211,100 -2.0423,215 l -5.1057,207 -46.9722,-6 c -31.6552,-4 -87.8176,2 -164.4027,16 -108.2404,21 -313.4885,74 -323.6999,83 -2.0422,3 -1.0211,95 3.0635,206 l 7.1479,201 h 27.5706 c 63.3104,0 240.9879,-22 249.157,-31 24.5072,-23 43.9088,-9 51.0568,37 8.169,59 8.169,297 0,318 -4.0846,12 -16.3382,14 -55.1413,9 -27.5707,-3 -103.1347,0 -168.4873,7 l -119.4728,13 6.1268,186 c 3.0634,102 5.1057,192 6.1268,199 0,9 51.0567,12 219.544,12 h 218.5229 l 36.7609,-31 c 19.4016,-17 35.7397,-27 36.7609,-23 1.0211,5 2.0422,84 3.0634,175 1.0211,147 3.0634,169 19.4015,187 29.6129,32 19.4016,57 -23.4861,57 -19.4015,1 -235.8822,-1 -479.9335,-2 z"
         id="path4-5"
         style="opacity:1;mix-blend-mode:normal;fill:#040404;fill-opacity:1;fill-rule:nonzero;stroke-width:1.01051" /><path
         d="m 6213.6704,2678 c -9.1902,-5 -8.1691,-13 2.0422,-30 43.9088,-69 44.93,-74 38.8032,-264 -5.1057,-201 -1.0212,-216 45.9511,-153 35.7397,47 73.5217,61 177.6775,67 l 92.9232,5 6.1269,-168 c 4.0845,-93 7.1479,-467 7.1479,-831 V 641 l -35.7397,-36 c -58.2047,-57 -41.8666,-69 188.91,-145 36.7608,-12 94.9655,-37 129.6841,-56 66.3738,-36 115.3883,-44 115.3883,-20 0,8 -11.2325,36 -25.5284,62 l -25.5284,47 v 905 905 l 102.1135,-6 c 112.3249,-6 154.1914,-23 195.0368,-78 39.8243,-55 42.8877,-40 35.7397,159 -7.1479,176 -6.1268,189 13.2748,227 24.5072,44 27.5706,75 9.1902,75 -553.4552,4 -1065.0438,3 -1073.2129,-2 z"
         id="path5-3"
         style="opacity:1;mix-blend-mode:normal;fill:#040404;fill-opacity:1;fill-rule:nonzero;stroke-width:1.01051"
         sodipodi:nodetypes="cccccccsccccscccccccccc" /><path
         d="m 100.13481,2670 c -12.253625,-7 -8.169085,-17 20.4227,-57 l 35.73972,-48 V 1490 415 L 134.8534,375 c -12.25362,-22 -25.52838,-50 -28.59178,-62 -6.12681,-20 -4.08454,-23 21.44383,-23 15.31703,0 67.39492,16 115.38826,36 47.99335,20 134.78983,53 192.99453,74 58.2047,22 115.38826,47 125.59961,58 19.40157,18 18.38043,20 -16.33816,61 l -36.76086,43 v 378 c 0,322 2.04227,379 15.31702,390 8.16908,7 21.44384,10 28.59178,7 7.14795,-2 49.01449,-99 92.92329,-213 43.90881,-115 105.17691,-269 135.81097,-343 40.8454,-99 53.09902,-142 49.01448,-163 -4.08454,-15 -11.23249,-30 -16.33816,-33 -14.29589,-9 -11.23249,-41 6.12681,-55 13.27475,-11 46.97221,-3 197.07908,45 170.5295,55 257.326,89 257.326,101 0,3 -15.317,21 -34.7186,40 -21.4438,22 -55.1413,83 -92.9233,167 -31.6552,72 -88.8387,200 -124.5784,282 -75.56404,169 -105.17695,249 -105.17695,279 0,15 14.29589,28 45.95108,45 59.22587,31 113.34597,89 145.00117,157 l 24.5072,54 -3.0634,387 c -3.0634,384 -3.0634,389 -27.5706,441 -26.5495,58 -75.564,105 -137.85324,133 -38.80313,17 -74.54286,19 -445.21488,19 -229.75539,0 -409.47516,-4 -418.66537,-10 z m 655.5687,-357 c 17.3593,-15 18.38043,-37 18.38043,-284 v -268 l -29.61292,-20 c -31.65518,-23 -124.57847,-48 -189.93112,-53 l -40.8454,-3 v 315 315 l 81.69081,6 c 44.92994,3 94.96556,6 111.30372,7 16.33816,1 38.80313,-5 49.01448,-15 z"
         id="path6-5"
         style="fill:#040404;fill-opacity:1;fill-rule:nonzero;stroke-width:1.01051" /><path
         d="m 3245.2308,425 c 0,-132 -3.0634,-250 -6.1268,-263 -6.1269,-21 -4.0846,-22 66.3737,-22 h 72.5006 v 90 c 0,106 -3.0634,104 130.7053,98 l 82.712,-3 3.0634,61 3.0634,61 -103.1347,-5 -104.1558,-5 -4.0845,39 c -3.0634,22 -4.0845,42 -2.0423,46 2.0423,3 59.2259,9 126.6208,13 l 122.5362,8 v 61 61 h -194.0157 -194.0156 z"
         id="path7"
         style="fill:#3e2723;fill-opacity:1;fill-rule:nonzero;stroke-width:1.01051" /><path
         d="m 2704.0292,646 c -150.1069,-39 -247.1147,-177 -214.4384,-305 31.6552,-122 142.9589,-211 266.5163,-211 129.6841,0 264.474,135 264.474,266 0,66 -20.4227,114 -74.5429,171 -67.3949,73 -157.2548,102 -242.009,79 z m 83.7331,-126 c 58.2047,-16 89.8599,-60 89.8599,-125 0,-48 -4.0846,-58 -34.7186,-88 -44.93,-45 -87.8177,-53 -146.0224,-27 -35.7397,15 -49.0144,28 -65.3526,65 -30.634,68 -11.2325,126 55.1413,165 37.782,23 49.0145,24 101.0924,10 z"
         id="path8-6"
         style="fill:#3e2723;fill-opacity:1;fill-rule:nonzero;stroke-width:1.01051" /><path
         d="m 3864.0386,410 c -4.0845,-137 -5.1057,-254 -1.0211,-260 3.0634,-5 33.6974,-10 67.3949,-10 h 60.247 v 84 c 0,55 4.0845,87 12.2536,92 7.1479,4 55.1413,8 107.2192,8 h 94.9655 v 57 58 l -99.0501,3 -100.0712,3 -3.0634,43 -3.0634,42 105.1769,1 c 58.2047,1 113.346,1 123.5573,0 14.2959,-2 17.3593,6 17.3593,41 0,24 3.0634,53 6.1268,66 l 6.1268,22 h -192.9945 -194.0156 z"
         id="path9-2"
         style="fill:#3e2723;fill-opacity:1;fill-rule:nonzero;stroke-width:1.01051" /><path
         d="M 4460.3815,400 V 140 l 178.6986,-1 c 98.029,-1 184.8255,-2 191.9734,-3 8.1691,-1 13.2748,20 15.317,66 l 3.0634,68 h -128.663 -128.663 l 3.0634,33 3.0634,32 102.1135,5 102.1135,5 3.0634,29 c 2.0423,15 1.0212,39 -2.0422,52 -6.1268,22 -11.2325,23 -106.1981,26 l -99.0501,3 v 35 35 l 125.5996,3 124.5785,3 v 64 65 h -194.0157 -194.0156 z"
         id="path10"
         style="fill:#3e2723;fill-opacity:1;fill-rule:nonzero;stroke-width:1.01051" /><path
         d="m 2022.9321,621 c -100.0712,-33 -165.4239,-102 -186.8677,-194 -17.3593,-78 1.0211,-142 63.3104,-219 84.7542,-105 275.7064,-111 390.0736,-12 28.5917,25 28.5917,25 10.2113,46 -11.2325,11 -36.7609,34 -59.2258,51 -34.7186,27 -39.8243,29 -49.0145,14 -5.1057,-9 -22.465,-24 -38.8031,-32 -85.7754,-43 -183.8043,21 -183.8043,121 0,30 7.1479,44 42.8876,77 37.782,35 45.9511,39 81.6908,34 22.465,-3 59.2259,-17 81.6908,-32 37.782,-25 42.8877,-26 51.0568,-11 5.1057,10 27.5706,30 50.0356,46 l 39.8243,28 -62.2893,41 c -60.2469,40 -116.4094,61 -157.2548,61 -11.2325,-1 -43.9088,-9 -73.5217,-19 z"
         id="path11"
         style="fill:#3e2723;fill-opacity:1;fill-rule:nonzero;stroke-width:1.01051" /><text
         xml:space="preserve"
         style="font-size:102.946px;text-align:start;writing-mode:lr-tb;direction:ltr;text-anchor:start;fill:#dfdfdf;fill-opacity:1;fill-rule:nonzero;stroke-width:8.57885"
         x="3284.7671"
         y="-5856.0723"
         id="text23"
         transform="scale(1.2103737,-0.82619109)"
         inkscape:label="text23"><tspan
           sodipodi:role="line"
           id="tspan23"
           style="stroke-width:8.57885"
           x="3284.7671"
           y="-5856.0723" /></text><path
         d="m 5094.8779,402.4034 v -260 l 178.6986,-1 c 98.029,-1 184.8255,-2 191.9734,-3 8.1691,-1 13.2748,20 15.317,66 l 3.0634,68 h -128.663 -128.663 l 3.0634,33 3.0634,32 102.1135,5 102.1135,5 3.0634,29 c 2.0423,15 1.0212,39 -2.0422,52 -6.1268,22 -11.2325,23 -106.1981,26 l -99.0501,3 v 35 35 l 125.5996,3 124.5785,3 v 64 65 h -194.0157 -194.0156 z"
         id="path10-7"
         style="fill:#3e2723;fill-opacity:1;fill-rule:nonzero;stroke-width:1.01051"
         inkscape:label="path10-7" /></g><path
       style="opacity:1;fill:#000000;fill-opacity:0;fill-rule:nonzero;stroke:none;stroke-width:10.9712;stroke-dasharray:none;stroke-opacity:1;paint-order:markers stroke fill"
       id="path71"
       d="M 88.092351,325.13685 C -38.840259,198.03835 -183.60295,98.802647 -328.01555,5.6393478 c -66.9157,-43.1686028 -134.162,-85.8472028 -203.3393,-123.2263078 -147.072,-79.4685 -102.7844,-87.67739 -188.8982,-46.8196 49.1495,12.8331 101.7921,12.684 147.4484,38.4994 77.9576,44.079605 143.195,116.7113048 218.0988,168.191807 195.3672,134.273503 345.5988909,225.319303 562.1785,291.804603 69.1915,21.2404 140.6098,35.2279 211.9175,36.0586 41.4756,0.4834 81.1042,-21.4481 121.6563,-32.1721 -42.3455,-41.3335 -12.395,-0.6605 -22.3441,-97.1328 -9.5754,-92.8482 -66.7458,-106.1572 100.9503,-131.0982 38.7161,-5.7581 75.9232,21.9833 113.9273,32.7493 56.8922,16.1167 113.8404,31.9324 170.7606,47.8986 -164.2445,-22.4682 299.15165,80.0623 256.39345,-11.0968 -17.6723,-37.6767 -72.2275,-0.2814 -105.2584,-15.7643 -40.7018,-19.0782 -72.53405,-59.603 -110.68775,-85.456403 -267.2276,-181.076207 -56.5916,-20.2982 -173.4256,-110.796502 62.8243,-11.1037 125.196,-39.3805 188.4728,-33.3111 120.57515,11.5651 237.09615,59.0339998 356.10345,85.545103 472.2399,105.200302 564.4367,116.988902 1050.4496,205.768102 0,0 -11.3372,9.835 -11.3372,9.835 v 0 c -184.5745,-32.142 -369.1966,-63.8725 -553.7235,-96.426 -172.1854,-30.3763 -344.1386,-62.747903 -516.4116,-92.362803 -127.4063,-21.901999 -257.563,-24.996199 -382.60765,-62.184902 -27.199,-8.0891 -41.1771,-46.6489 -61.7656,-69.9734 60.3736,88.6414028 4.1863,16.6902 162.56065,117.427703 40.6074,25.829199 96.3735,34.445499 119.37,83.068602 88.6955,187.5351 -252.11505,166.2442 -270.44395,120.495 -59.0133,-14.1172 -117.8627,-29.3151 -177.0399,-42.3513 -39.6794,-8.741 -83.5964,-0.3678 -119.4811,-22.9695 -11.2425,-7.0809 8.7586,-48.6701 19.3074,-40.1237 15.6447,12.675 11.4349,44.1606 13.8858,67.0162 13.8074,128.7595 -2.594,86.9117 -104.6117,194.165 -37.7707,7.10476 -75.1696,24.09156 -113.3122,21.31456 -68.8519,-5.0128 -137.2495,-21.86806 -203.7486,-44.39846 -218.634109,-74.075 -362.3777,-163.1773 -565.8612,-290.282203 -79.5186,-49.670999 -171.0758,-80.4753022 -235.3401,-156.568702 -29.0964,-34.452105 -13.9391,-97.898105 -20.9086,-146.847195 79.7397,-9.7724 32.8043,-10.3068 171.576,69.50639 68.4016,39.3406 135.6594,81.646705 202.9172,123.869605 105.3428,66.131903 260.628091,166.172805 365.961601,243.711805 24.960899,18.3744 48.221299,40.0417 72.331899,60.0627 z" /><path
       style="opacity:1;fill:#000000;fill-opacity:0;fill-rule:nonzero;stroke:none;stroke-width:10.9712;stroke-dasharray:none;stroke-opacity:1;paint-order:markers stroke fill"
       id="path72"
       d="m 1668.3887,-137.03686 c -47.6719,-22.2805 -94.1559,-48.8785 -143.0159,-66.84139 -200.8944,-73.8571 -411.6393,-124.02 -617.73735,-166.7788 -243.3221,-50.4816 -505.5826,-90.8729 -750.8377,-123.9212 -117.515609,-15.8353 -235.293609,-28.5677 -352.9404,-42.8516 -281.8492,-29.061 -305.976,-32.69 -572.3516,-56.1815 -66.8227,-5.893 -133.5767,-19.6501 -200.5263,-16.6493 -34.11085,1.5289 -86.11365,-8.5861 -99.43865,30.0943 -10.7685,31.2591 56.4431,8.8164 79.83585,26.8094 60.937,46.8712 112.7051,109.7555 169.0576,164.6333 96.7059,72.93 190.9118,151.1383 290.1178,218.78989 271.0761,184.855308 631.3709,395.82341 914.8061,537.83081 359.8103,180.27306 727.15115,330.89476 1100.10665,463.85566 163.8611,58.4175 329.9224,107.04337 494.8836,160.56507 521.1487,140.94712 274.8884,81.23102 738.0657,183.56132 0,0 -36.39,31.2516 -36.39,31.2516 v 0 C 2232.306,1091.8238 2471.9664,1157.5291 1963.7049,1006.391 1801.0372,950.90568 1637.4642,899.29523 1475.7018,839.93521 1127.993,712.34061 708.89765,542.32661 372.13075,378.72645 c -234.6041,-113.97 -702.956,-374.3021022 -936.7048,-520.61561 -103.3941,-64.71889 -202.6103,-139.08799 -303.9154,-208.63199 -63.0734,-52.2865 -149.71995,-76.8766 -189.22035,-156.8595 -63.4353,-128.448 109.75665,-146.9409 138.36415,-146.5617 65.0123,0.8615 129.4739,14.8133 194.2097,22.2353 339.8115,38.96 189.0497,21.5357 562.1025,65.2947 116.800691,15.0589 233.705101,28.9455 350.4022,45.1767 249.3437,34.6809 505.4926,74.1873 753.394,122.0565 176.76715,34.1333 459.02585,94.5846 639.65935,149.4326 51.9486,15.7738 102.1248,39.3506 153.1872,59.02589 z" /><path
       style="opacity:1;fill:#000000;fill-opacity:0;fill-rule:nonzero;stroke:none;stroke-width:10.9712;stroke-dasharray:none;stroke-opacity:1;paint-order:markers stroke fill"
       id="path73"
       d="M 3020.5747,1241.5512 C 2534.9339,1052.9844 2047.1266,872.41051 1556.2021,705.70761 1030.5818,527.22321 571.40575,385.79785 43.400141,219.48105 -418.68265,78.185747 -645.94515,-0.63125222 -1091.1663,-106.76356 c -86.3733,-20.5898 -177.1487,-16.5224 -260.7648,-50.1977 -20.3766,-8.2064 37.9022,-34.1401 59.188,-30.9847 69.9157,10.3641 135.0987,49.2219 203.482,69.9222 151.83875,45.963105 304.69345,86.683105 457.04005,130.024608 665.225391,154.951402 589.616891,149.360702 1296.7837,260.622202 222.5352,35.0123 445.54395,65.4837 668.68695,94.0402 192.804,24.6739 386.0531,43.76066 579.0797,65.64116 0,0 -9.0788,7.9543 -9.0788,7.9543 v 0 C 1048.772,332.06115 193.08765,224.19505 -651.86265,28.832748 c -161.5762,-35.5534032 -323.5558,-68.433303 -484.72865,-106.660103 -78.1949,-18.546201 -163.6213,-16.040701 -233.2404,-63.627305 -22.063,-15.0807 36.8546,-54.9566 62.0588,-53.38 80.7711,5.0525 156.9705,48.0436 235.4707,71.9914 1006.108841,306.93081 -137.6711,-42.5875 1117.136041,341.10841 251.456809,79.207 503.230909,156.9024 754.370309,237.62086 253.13455,81.3598 505.37575,166.8865 758.43315,248.6085 225.2884,72.7543 451.1111,142.9786 676.5933,214.81702 284.3183,90.58347 567.9804,184.04187 854.2537,264.99397 z" /><path
       style="opacity:1;fill:#000000;fill-opacity:0;fill-rule:nonzero;stroke:none;stroke-width:10.9712;stroke-dasharray:none;stroke-opacity:1;paint-order:markers stroke fill"
       id="path74"
       d="m 2600.1902,-2114.191 c -34.2515,-79.5915 -58.8449,-165.0218 -84.4028,-249.2455 -4.8498,-17.3498 -9.9181,-34.6093 -14.5495,-52.0491 -5.3916,-20.3024 -12.4009,-46.8758 -14.9877,-68.901 -5.5038,-46.8616 37.4281,-49.2898 78.0519,-71.989 3.6663,-2.0486 6.5662,5.7379 9.8493,8.607 -17.4677,7.0591 17.911,9.3329 12.9599,12.0082 -25.7584,13.9183 -50.7979,33.9219 -78.8048,37.1719 -7.9135,0.9184 -6.1102,-18.0717 -9.4926,-26.9254 -18.7922,-49.1913 -4.6252,-6.7387 -17.4182,-46.6781 28.4398,-16.472 54.441,-42.1928 85.3193,-49.4158 9.9758,-2.3336 15.6434,15.9413 23.4192,23.9795 11.9379,12.3408 39.7061,41.8376 52.4979,53.7182 18.37,17.0614 11.6705,16.0137 25.7446,13.9689 -42.5277,27.0525 -77.1088,81.1474 -71.8473,37.2437 0.4158,-3.4679 -0.585,-8.3227 1.7738,-10.2872 25.531,-21.2646 52.2358,-40.5269 79.7579,-57.6196 2.9544,-1.8349 6.4841,1.9933 9.7934,2.0032 5.121,0.014 10.1888,-1.2855 15.2831,-1.9283 16.657,-5.9507 22.4242,-7.2941 38.5856,-16.0899 6.0274,-3.2804 23.4021,-14.9251 17.6445,-10.9784 -148.4469,101.7566 -56.1021,56.4797 -56.3804,28.5503 -11.9886,11.6806 -12.0721,-8.4569 -8.4994,-18.653 1.9657,-5.6096 11.8996,-18.3395 15.39,-23.0473 26.8172,-16.8554 51.8423,-39.0068 80.4516,-50.5664 4.4669,-1.8048 4.6533,10.1 6.3832,15.4808 1.4621,4.5477 1.7508,9.5724 3.1438,14.1528 0.2067,0.6804 2.0334,0.8123 1.5077,1.1426 -77.2042,48.5263 -80.9162,78.7475 -74.2615,39.1263 4.8212,-40.2422 2.3932,-32.1541 83.6763,-42.4946 7.3763,-0.9383 6.1775,16.601 9.5096,24.7553 16.879,41.3068 37.1514,78.2782 59.076,115.7293 l -70.4853,51.2498 v 0 c -21.9739,-37.7145 -42.9968,-75.2875 -61.7318,-115.592 -3.4725,-7.4704 -15.0306,-16.3036 -10.2193,-22.5489 19.4847,-25.2922 48.1553,-36.7622 71.3354,-56.7828 1.0984,-0.9487 -2.554,-1.014 -3.8311,-1.5209 -0.9907,39.8695 -68.5682,99.1842 -79.815,57.1727 -1.0729,-4.008 -1.5213,-8.237 -2.5203,-12.2738 -0.4987,-2.0148 -3.3644,-4.6312 -1.9625,-5.8389 21.998,-18.9496 45.8264,-34.4565 68.7396,-51.6847 -7.0746,8.5729 -13.0183,19.1284 -22.2704,24.0941 -2.235,1.1996 19.3167,1.1104 12.5366,8.2258 0.6958,3.4898 2.3454,6.8901 2.0872,10.4692 -0.3207,4.4429 -0.7786,10.0044 -3.7483,12.5603 -26.918,23.1677 -55.763,42.767 -84.1547,63.0957 -17.821,12.76 -38.5886,19.0129 -58.4685,24.4702 -42.8031,3.9842 -50.4549,17.2385 41.5217,-49.3154 1.8207,-1.3174 -3.1029,3.9964 -3.4178,6.567 -0.4883,3.9862 3.7243,9.5329 1.1417,12.012 -23.7546,22.803 -50.7465,39.9748 -76.1197,59.9623 -14.2508,-7.3804 -7.3558,-2.7903 -25.4461,-20.7727 -12.4336,-12.3595 -40.2256,-41.561 -52.7137,-53.053 -7.6372,-7.028 -28.2866,-9.4955 -23.6735,-19.7677 12.4106,-27.6349 39.6796,-40.0342 59.5194,-60.0513 1.5933,6.3398 2.6544,12.9207 4.7799,19.0194 3.2834,9.4208 7.6398,18.2188 11.3888,27.3725 3.6439,8.8972 15.4959,18.6725 10.7895,26.7794 -50.3004,86.6453 -48.9773,91.51 -80.2598,59.7616 -31.4368,-8.6728 -20.5535,-3.6806 60.4929,-55.6249 3.0885,-1.9795 -2.5049,8.2205 -2.4289,12.5055 0.3581,20.1874 621.8443,-2174.7852 625.9992,-2157.4369 4.2045,17.5552 789.1101,-2007.9684 793.6467,-1990.5389 24.954,83.0041 -1343.8883,4436.7208 -1305.8782,4512.2702 z"
       sodipodi:nodetypes="ccssscssscssscsssscsscscsssccssccsssscssscscssscssscssscssscsssccc" /><path
       style="opacity:1;fill:#000000;fill-opacity:0;fill-rule:nonzero;stroke:none;stroke-width:10.9712;stroke-dasharray:none;stroke-opacity:1;paint-order:markers stroke fill"
       id="path75"
       d="m 7009.8901,1873.2631 c 17.4063,-92.272 44.5822,-181.1118 73.937,-268.4661 51.2305,-138.8027 107.5151,-274.9386 167.9405,-408.0237 18.2648,-37.9128 34.904,-76.8896 50.7469,-116.3906 0,0 75.8934,-42.2426 75.8934,-42.2426 v 0 c -16.7066,40.2496 -34.1531,80.0028 -53.4878,118.4652 -61.8587,132.1082 -118.1462,268.3584 -169.1228,407.3115 -28.0955,85.2243 -54.038,172.0856 -68.6156,262.5603 z" /><path
       style="opacity:1;fill:#000000;fill-opacity:0;fill-rule:nonzero;stroke:none;stroke-width:10.9712;stroke-dasharray:none;stroke-opacity:1;paint-order:markers stroke fill"
       id="path76"
       d="m 3027.0528,-337.77635 c 6.9182,-74.2398 4.967,-149.0515 5.8047,-223.5901 0.9529,-84.7963 1.4594,-78.995 5.5677,-163.3754 7.2181,-97.7726 3.4424,-50.6837 11.2034,-141.2815 0,0 71.706,-43.7056 71.706,-43.7056 v 0 c -9.2075,91.0023 -4.8584,43.7726 -12.8535,141.7161 -1.3843,26.9882 -3.274,53.9442 -4.1529,80.9644 -3.277,100.7462 2.3146,201.5293 -0.6434,302.2836 z" /><path
       style="opacity:1;fill:#000000;fill-opacity:0;fill-rule:nonzero;stroke:none;stroke-width:10.9712;stroke-dasharray:none;stroke-opacity:1;paint-order:markers stroke fill"
       id="path77"
       d="m 3148.2822,-1224.7519 c -5.5433,-35.3957 -11.4214,-70.7842 -12.9024,-106.8966 -0.5027,-12.2639 -3.7959,-50.9535 9.7506,-61.55 29.1666,-22.815 62.2052,-37.0813 93.3078,-55.622 10.724,7.7085 22.5111,13.5203 32.1719,23.1253 68.3719,67.9768 125.8867,196.2287 157.6724,294.5089 11.6202,35.9292 20.2806,73.2037 30.421,109.8056 36.1055,152.68715 51.6959,311.91715 47.4825,470.85475 -2.4116,90.9735 -10.793,165.8301 -19.0974,256.2206 -31.2312,263.493495 -94.0722,518.6807 -154.1739,773.75856 -23.4288,97.2885 -47.4263,195.8864 -42.1119,298.5429 2.7384,52.8962 10.3175,89.4137 18.8779,141.69862 24.3021,128.14717 58.7691,252.88577 86.1883,380.01127 21.484,99.6075 21.3029,105.6645 38.0496,205.9192 4.3597,33.9482 8.7195,67.8964 13.0792,101.8445 0,0 -67.2349,43.7985 -67.2349,43.7985 v 0 c -4.2601,-33.8521 -8.5201,-67.7042 -12.7802,-101.5562 -15.9582,-97.3642 -16.5821,-108.8525 -37.5313,-205.4592 -27.5467,-127.0305 -63.0248,-251.2257 -89.3702,-378.65732 -9.3009,-52.73525 -17.4622,-89.30267 -20.5325,-142.86057 -6.0143,-104.9077 19.8246,-205.1221 45.5259,-303.7367 63.1038,-254.08296 126.1067,-509.4722622 156.384,-773.28066 9.2655,-101.1295 15.7236,-153.0346 18.321,-254.5359 4.0445,-158.0498 -9.634,-316.3507 -46.5031,-468.0993 -10.2531,-36.14795 -18.977,-73.00905 -30.7594,-108.44375 -21.2348,-63.8623 -46.6352,-122.0081 -79.1945,-178.0851 -19.6273,-33.8041 -52.5103,-81.7162 -81.6048,-106.5886 -9.2037,-7.8682 -20.5098,-11.121 -30.7647,-16.6815 17.0578,-16.1618 32.6006,-35.0906 51.1734,-48.4852 6.0112,-4.3353 -10.5672,12.3712 -12.5147,20.6048 -2.7115,11.4641 -1.183,23.8737 -0.8277,35.8057 1.0506,35.2876 7.146,69.8152 14.6784,103.7423 z" /><path
       style="fill:#a0a0a0;stroke:none;stroke-width:1.44109"
       d=""
       id="path85"
       transform="matrix(5.7583108,0,0,-7.0877676,1379.8281,4565.169)" /><path
       style="fill:#a0a0a0;stroke:none;stroke-width:1.44109"
       d=""
       id="path86"
       transform="matrix(5.7583108,0,0,-7.0877676,1379.8281,4565.169)" /><path
       style="fill:#000000;fill-opacity:1;stroke:none;stroke-width:1.44109"
       d=""
       id="path87"
       transform="matrix(5.7583108,0,0,-7.0877676,1379.8281,4565.169)" /></g><metadata
     id="metadata1"><rdf:RDF><cc:Work
         rdf:about=""><cc:license
           rdf:resource="http://creativecommons.org/licenses/by-nc/4.0/" /></cc:Work><cc:License
         rdf:about="http://creativecommons.org/licenses/by-nc/4.0/"><cc:permits
           rdf:resource="http://creativecommons.org/ns#Reproduction" /><cc:permits
           rdf:resource="http://creativecommons.org/ns#Distribution" /><cc:requires
           rdf:resource="http://creativecommons.org/ns#Notice" /><cc:requires
           rdf:resource="http://creativecommons.org/ns#Attribution" /><cc:prohibits
           rdf:resource="http://creativecommons.org/ns#CommercialUse" /><cc:permits
           rdf:resource="http://creativecommons.org/ns#DerivativeWorks" /></cc:License></rdf:RDF></metadata></svg>
